
<svg width="167" height="162" viewBox="0 0 167 162" fill="none" xmlns="http://www.w3.org/2000/svg">
<g clip-path="url(#clip0)">
<path d="M83.5455 162C128.328 162 164.631 125.735 164.631 81C164.631 36.2649 128.328 0 83.5455 0C38.7631 0 2.45984 36.2649 2.45984 81C2.45984 125.735 38.7631 162 83.5455 162Z" fill="#3366FF"/>
<path d="M83.5455 153.809C123.799 153.809 156.432 121.211 156.432 81C156.432 40.7887 123.799 8.19104 83.5455 8.19104C43.2917 8.19104 10.6595 40.7887 10.6595 81C10.6595 121.211 43.2917 153.809 83.5455 153.809Z" fill="#244171"/>
<path d="M125.273 80.6359C118.986 110.852 92.9296 131.238 80.539 139.338C76.5303 141.978 73.9793 143.343 73.9793 143.343C73.9793 143.343 39.814 137.245 14.9416 108.849C-9.9307 80.4539 -0.911065 43.4123 20.317 35.2213C27.6056 32.4 34.2564 32.582 39.7229 34.1292C50.2002 36.9505 56.76 44.4134 56.76 44.4134C58.7643 41.3191 60.9509 38.2247 63.593 35.5854C68.9684 30.0337 75.9836 25.6651 86.0055 24.391C89.5587 23.9359 93.5674 24.1179 97.6672 25.1191C114.613 28.9415 132.47 45.8696 125.273 80.6359Z" fill="#EA3C4D"/>
<path opacity="0.3" d="M126.913 63.7078C126.913 62.9798 126.822 62.3427 126.822 61.7056C126.822 61.4326 126.822 61.0685 126.73 60.7955C126.73 60.3404 126.639 59.7944 126.548 59.3393C126.548 59.0663 126.457 58.7932 126.457 58.5202C126.366 58.0651 126.275 57.5191 126.275 57.064C126.275 56.882 126.184 56.609 126.184 56.4269C126.093 55.8809 126.002 55.4258 125.91 54.8798C125.91 54.6977 125.819 54.6067 125.819 54.4247C125.091 51.2393 124.179 48.3269 122.995 45.6876C117.62 33.8562 107.507 27.2123 97.7583 24.9371C93.7496 23.9359 89.7408 23.7539 86.0965 24.209C76.0747 25.4831 69.0594 29.8517 63.6841 35.4033C61.042 38.1337 58.8554 41.1371 56.851 44.2314C56.851 44.2314 50.2913 36.7685 39.8139 33.9472C39.3584 33.8562 38.9029 33.6741 38.3562 33.5831C37.7185 33.4921 37.0807 33.3101 36.443 33.2191C34.2564 33.5831 31.9787 34.1292 29.701 35.0393C8.56406 43.2303 -0.546679 80.2719 24.3257 108.667C25.419 109.851 26.4211 111.034 27.5144 112.217C30.4299 115.22 32.6164 118.77 34.1653 122.592C34.9852 124.594 35.8963 126.233 36.8074 127.598C38.994 128.963 41.0894 130.237 43.1849 131.42L42.2738 124.958C53.4801 132.876 64.5952 137.609 72.4304 140.248C75.0725 141.158 78.0791 140.794 80.3568 139.247C81.9056 138.246 83.6366 137.063 85.5499 135.607C86.461 134.879 87.4631 134.151 88.5564 133.422C91.1074 131.42 93.8407 129.145 96.665 126.688C101.676 122.137 106.869 116.676 111.516 110.306C113.064 108.212 114.522 106.028 115.889 103.662C116.8 102.115 117.711 100.567 118.531 98.9292C119.624 96.7449 120.717 94.4696 121.628 92.1033C121.811 91.5573 122.084 91.0112 122.266 90.3741C123.451 87.1887 124.453 83.9123 125.091 80.4539C125.273 79.4528 125.455 78.4517 125.637 77.4505C125.728 77.0865 125.728 76.8135 125.819 76.4494C125.91 75.8123 126.002 75.1753 126.093 74.5382C126.184 74.1741 126.184 73.8101 126.275 73.446C126.366 72.9 126.366 72.3539 126.457 71.8078C126.457 71.4438 126.548 70.9887 126.548 70.6247C126.548 70.0786 126.639 69.6236 126.639 69.0775C126.639 68.7135 126.73 68.2584 126.73 67.8944C126.73 67.3483 126.73 66.8932 126.73 66.4382C126.73 66.0741 126.73 65.7101 126.73 65.3461C126.913 64.891 126.913 64.2539 126.913 63.7078Z" fill="#326C92"/>
<path d="M125.273 80.6359C118.986 110.852 92.9296 131.238 80.5389 139.338C68.3305 135.152 48.9246 126.051 33.2542 108.121C8.38182 79.7258 17.4015 42.6843 38.5384 34.4932C38.9028 34.3112 39.3584 34.2202 39.7228 34.0382C50.2002 36.8595 56.7599 44.3225 56.7599 44.3225C58.7643 41.2281 60.9508 38.1337 63.593 35.4944C70.6993 38.8618 74.9814 43.6854 74.9814 43.6854C80.0834 35.6764 86.7342 28.3045 97.6671 25.0281C114.613 28.9416 132.47 45.8696 125.273 80.6359Z" fill="#244171"/>
<path d="M165.816 71.7168C165.087 75.6303 163.993 79.7258 162.536 84.0033C158.527 95.6528 151.876 105.482 144.314 113.673C139.03 119.407 133.381 124.321 127.824 128.417C111.88 140.248 97.0295 145.8 97.0295 145.8C97.0295 145.8 79.3546 140.248 60.6776 125.14C54.4823 120.135 48.1958 114.128 42.365 106.847C40.4517 104.481 38.6296 101.933 36.8985 99.2932C15.6705 67.7123 26.2389 32.3089 46.647 21.4786C48.7425 20.3865 51.0202 19.4764 53.2979 18.9303C77.8058 12.9235 92.2008 34.2202 92.2008 34.2202C100.218 24.573 110.696 16.2 127.277 16.2C146.319 16.2 172.922 34.0382 165.816 71.7168Z" fill="white"/>
<path opacity="0.3" d="M165.816 71.7168C167.456 41.9561 152.514 26.5752 134.292 22.2067C110.696 16.655 92.5653 40.3179 92.5653 40.3179C71.975 16.837 55.4845 17.9292 46.6471 21.4786C48.7426 20.3865 51.0203 19.4764 53.2979 18.9303C77.8059 12.9235 92.2008 34.2202 92.2008 34.2202C100.218 24.573 110.696 16.2 127.277 16.2C146.319 16.2 172.922 34.0382 165.816 71.7168Z" fill="#326C92"/>
<path opacity="0.3" d="M144.314 113.673C139.03 119.407 133.381 124.321 127.824 128.417C127.733 121.227 125.819 112.854 119.077 105.3C118.257 104.39 117.438 103.48 116.709 102.661C113.611 99.2932 108.782 98.1101 104.409 99.6573C103.771 99.8393 103.134 100.112 102.496 100.294C100.856 100.84 99.1249 101.386 97.3028 101.933C75.8925 108.03 65.5062 116.858 60.7687 125.231C54.5733 120.226 48.2869 114.219 42.4561 106.938C47.5581 100.658 55.6666 94.6517 68.695 91.2842C72.066 90.3741 75.3459 89.646 78.4435 88.918C86.6432 87.0067 93.8407 85.6415 100.127 84.3674C94.8429 77.4505 92.2007 70.6247 94.114 60.8865C97.8494 42.4112 116.162 44.5045 121.993 45.3236L121.628 48.0539C121.628 48.0539 104.774 44.5955 103.954 61.1595C103.68 67.1663 109.602 73.173 117.073 80.0899C117.711 79.9078 118.44 79.6348 119.077 79.3618C124.999 77.0865 129.19 74.0831 131.65 69.2595C138.666 55.7899 129.464 49.055 121.537 47.9629L121.902 45.2326C121.902 45.2326 139.486 47.0528 139.303 62.8887C139.212 71.6258 135.386 79.9989 127.186 87.0977C126.73 87.4618 126.275 87.8258 125.819 88.1899C133.108 95.3798 140.397 103.571 144.314 113.673Z" fill="#326C92"/>
<path d="M88.4653 51.1482C88.4653 51.1482 95.845 44.4134 109.329 44.4134C122.813 44.4134 125.91 52.5134 125.91 52.5134C125.91 52.5134 130.101 34.6752 109.329 34.6752C88.6475 34.7662 88.4653 51.1482 88.4653 51.1482Z" fill="#C11E35"/>
<path opacity="0.3" d="M109.329 41.137C97.1206 41.137 92.0186 45.4145 89.9231 50.0561C92.6563 48.1448 99.3072 44.5044 109.329 44.5044C122.722 44.5044 125.911 52.6044 125.911 52.6044C125.911 52.6044 126.002 52.2403 126.093 51.5122C125.364 46.3246 121.993 41.137 109.329 41.137Z" fill="#326C92"/>
<path d="M120.808 73.7191C115.706 79.5438 108.327 85.1865 98.3049 90.1921C96.7561 91.0112 95.1162 91.7393 93.3851 92.5584C44.2782 114.492 61.8619 139.611 62.0442 139.975C60.5864 139.975 55.8489 139.065 50.5646 137.518C38.994 134.06 32.7987 121.318 37.4451 110.215C40.9072 101.842 48.2869 92.6494 63.5019 86.2786C66.6906 84.9134 69.7883 83.7303 72.7948 82.5471C90.1964 75.8123 103.134 72.0809 111.607 67.3483C117.164 64.2539 120.808 60.7045 122.631 55.5168C127.642 41.228 117.529 35.8584 109.602 35.8584V33.128C109.602 33.128 127.277 32.3089 129.373 48.1449C130.466 56.7 127.915 65.437 120.808 73.7191Z" fill="#EA3C4D"/>
<path opacity="0.3" d="M120.809 73.719C121.628 72.7179 122.448 71.8078 123.177 70.8066C124.362 69.1684 123.451 66.8932 121.446 66.4381C120.171 66.1651 118.804 65.983 117.62 65.892C115.524 65.71 113.52 66.1651 111.698 67.2572C103.225 71.9898 90.2875 75.7212 72.886 82.4561C83.5456 82.9111 92.383 86.7336 98.3961 90.192C108.327 85.0954 115.707 79.5437 120.809 73.719Z" fill="#326C92"/>
<path opacity="0.3" d="M83.6366 78.3607C100.036 80.3629 106.596 85.5506 106.596 85.5506L112.7 77.6326L103.589 70.9888C97.9405 73.264 91.3807 75.5393 83.6366 78.3607Z" fill="#326C92"/>
<path d="M94.114 51.3303C94.5696 52.8775 95.2984 54.2427 96.3006 55.4258C97.3028 56.609 98.3961 57.7011 99.5805 58.7022C100.765 59.7034 102.04 60.6135 103.316 61.5236C104.591 62.4337 105.958 63.2528 107.325 64.1629L107.051 63.9809C107.233 64.0719 107.416 64.2539 107.598 64.3449L107.325 64.1629C109.42 65.4371 111.424 66.8022 113.52 68.0764C115.615 69.3506 117.711 70.7157 119.715 72.1719C123.815 74.9932 127.824 78.0876 131.468 81.5461C132.379 82.4562 133.29 83.2753 134.11 84.2764C134.93 85.1865 135.841 86.0966 136.661 87.1888C138.21 89.191 139.759 91.2843 141.034 93.4685C143.585 97.8371 145.408 102.752 145.954 107.757L145.681 107.848C144.405 103.116 142.31 98.5652 139.486 94.5607C136.752 90.4652 133.381 86.8247 129.737 83.5483C126.093 80.2719 122.175 77.2685 118.166 74.4472C114.158 71.6258 110.058 68.8955 106.049 65.9831C103.407 64.0719 100.856 62.1607 98.5783 59.7944C97.3939 58.6112 96.3917 57.4281 95.4806 55.9719C94.6607 54.6067 94.0229 53.0595 93.8407 51.4213L94.114 51.3303Z" fill="white"/>
<path d="M135.021 129.145L126.822 129.236C126.822 129.236 133.928 108.394 115.524 92.8314C97.1206 77.2685 83.2722 71.3528 84.2744 52.5134C85.3677 33.6741 103.68 33.1281 109.602 33.1281V35.9494C109.602 35.9494 92.4741 34.9483 94.0229 51.5123C94.4784 56.6089 99.4893 61.0685 106.231 65.8921C121.355 76.7224 145.408 89.464 147.23 116.13C147.685 123.047 142.128 129.054 135.021 129.145Z" fill="#EA3C4D"/>
</g>
<defs>
<clipPath id="clip0">
<rect width="167" height="162" fill="white"/>
</clipPath>
</defs>
</svg>
