
<svg width="162" height="162" viewBox="0 0 162 162" fill="none" xmlns="http://www.w3.org/2000/svg">
<path d="M81 162C125.735 162 162 125.735 162 81C162 36.2649 125.735 0 81 0C36.2649 0 0 36.2649 0 81C0 125.735 36.2649 162 81 162Z" fill="#3366FF"/>
<path d="M81.0001 153.809C121.211 153.809 153.809 121.211 153.809 81C153.809 40.7887 121.211 8.19104 81.0001 8.19104C40.7889 8.19104 8.19116 40.7887 8.19116 81C8.19116 121.211 40.7889 153.809 81.0001 153.809Z" fill="#244171"/>
<path opacity="0.5" d="M90.8291 74.3562L125.504 138.519C133.604 132.239 140.339 124.321 145.163 115.22C150.988 104.299 147.893 90.8292 137.973 83.5483C128.963 76.9045 119.771 72.1719 112.672 68.9865C105.027 65.6191 96.1078 67.8034 90.8291 74.3562Z" fill="#3366FF"/>
<path opacity="0.5" d="M79.1799 85.9147C54.6069 89.6461 36.4046 107.848 24.0271 126.142C37.3147 142.979 57.8833 153.809 81.0001 153.809C82.2743 153.809 83.4574 153.809 84.7316 153.718C72.081 139.247 64.7091 115.766 79.1799 85.9147Z" fill="#3366FF"/>
<path d="M139.338 60.7954C139.338 60.7954 128.235 75.1752 88.827 82.8201C59.7034 88.4628 49.4192 122.501 45.9607 139.793C44.7776 145.709 39.4989 149.895 33.4922 149.713C27.2124 149.531 19.1124 149.076 12.0136 148.257C8.10007 147.802 5.46074 143.889 6.46187 140.066C10.8304 123.957 26.2113 84.9134 74.4473 71.9898C135.789 55.6077 139.793 32.8549 139.429 21.0235C139.065 9.19201 145.436 25.574 144.435 35.0392C143.434 44.5044 139.338 60.7954 139.338 60.7954Z" fill="#C11E35"/>
<path opacity="0.3" d="M134.606 38.9528C134.697 50.9663 127.871 64.4359 123.502 71.8079C135.243 65.9831 139.338 60.7955 139.338 60.7955C139.338 60.7955 143.434 44.4135 144.435 35.0393C144.708 32.673 144.435 29.8517 143.98 27.1213L138.61 29.6697C137.882 32.582 136.699 35.6764 134.606 38.9528Z" fill="#3366FF"/>
<path opacity="0.3" d="M96.381 81.0909C92.5585 75.6303 88.372 71.7168 84.6405 68.9865C81.4551 69.9876 77.9967 70.9887 74.4473 71.8988C26.2113 84.7314 10.8304 123.775 6.46187 139.975C5.46074 143.798 8.10007 147.711 12.0136 148.166C13.8338 148.348 15.654 148.53 17.4742 148.712C23.1169 128.599 35.6765 114.674 50.7843 108.212C55.881 106.028 60.2495 102.479 63.7079 98.2011C69.8967 90.6471 78.0877 84.8224 88.827 82.7291C91.4664 82.2741 94.0147 81.728 96.381 81.0909Z" fill="#3366FF"/>
<path opacity="0.3" d="M73.4461 72.2628C43.5945 80.5448 26.4843 98.9291 16.8372 115.402C16.8372 115.402 35.4035 92.1943 64.072 90.192C69.3506 89.828 74.4473 88.1898 79.1799 85.9145C80.272 85.3684 81.3641 84.9134 82.4563 84.5493L73.4461 72.2628Z" fill="#3366FF"/>
<path d="M69.8058 5.2786C69.8058 5.2786 82.3653 -0.910161 98.6563 8.464C114.947 17.8382 117.041 32.582 115.311 37.4966C114.856 38.8618 113.764 40.4089 112.399 41.8651C109.942 44.5044 105.573 42.6842 105.573 39.1348C105.573 33.128 103.025 25.7561 93.0136 20.0224C71.353 7.73591 60.7957 22.3887 60.7957 22.3887C60.7957 22.3887 60.6136 9.92018 69.8058 5.2786Z" fill="#C11E35"/>
<path opacity="0.3" d="M102.57 28.7595C104.754 32.309 105.573 35.9494 105.573 39.1348C105.573 42.7752 109.942 44.5045 112.399 41.8651C113.764 40.409 114.856 38.8618 115.311 37.4966C115.584 36.7685 115.675 35.8584 115.766 34.7663C112.854 35.3123 107.666 34.8573 102.57 28.7595Z" fill="#3366FF"/>
<path opacity="0.3" d="M90.8292 5.00559C78.5427 1.0011 69.8056 5.27862 69.8056 5.27862C62.3427 9.01009 61.0685 17.8382 60.8865 21.1146C60.9775 21.3876 61.0685 21.6606 61.2505 21.9337C62.3427 20.6595 65.6191 17.3831 71.1707 15.8359C76.4494 10.6483 84.5494 7.18986 90.8292 5.00559Z" fill="#3366FF"/>
<path d="M150.26 138.337C150.533 139.611 149.713 140.885 148.439 141.249L144.435 142.16L128.508 145.891C121.318 147.62 114.128 143.07 112.763 135.789C110.215 122.865 101.842 102.388 75.1753 80.909C30.9438 45.4146 50.7843 12.3775 69.7146 5.36963C69.2595 5.73367 59.7944 13.1966 64.8 28.3955C64.8 28.4865 64.891 28.6685 64.891 28.7595C64.982 29.0326 65.164 29.3966 65.3461 29.9427C71.8989 45.1415 98.4741 61.9786 121.591 85.5505C141.613 105.937 148.53 130.692 150.26 138.337Z" fill="#EA3C4D"/>
<path d="M151.261 140.703C149.167 142.068 146.528 142.706 144.435 142.159C140.703 105.209 106.938 75.4482 89.737 60.7954C73.537 46.9617 67.2572 34.3112 65.437 29.9426C71.8988 45.1415 96.8359 59.0662 121.864 84.6404C145.8 109.122 151.261 140.703 151.261 140.703Z" fill="white"/>
<path d="M147.893 41.319C146.801 47.6898 144.071 54.3336 139.338 60.7954C139.338 60.7954 141.432 32.855 125.778 24.1179C110.033 15.4718 99.3844 27.2123 102.297 34.6752C105.3 42.4111 114.219 39.7718 114.219 39.7718C113.673 40.5909 112.945 41.41 112.126 42.3201C103.298 51.3302 87.9169 45.4145 87.8259 32.7639C87.8259 32.5819 87.8259 32.3999 87.8259 32.2179C87.9169 22.8437 92.9226 14.4707 100.659 9.28305C107.575 4.55047 116.585 2.27519 125.96 4.0044C140.521 6.55272 150.988 22.8437 147.893 41.319Z" fill="#EA3C4D"/>
<path d="M147.893 41.319C148.803 25.028 140.703 10.5572 126.051 6.64375C115.22 3.73139 106.938 6.73476 100.658 9.19206C107.393 3.36735 116.949 1.63813 126.324 3.36735C140.885 6.00667 151.807 22.8438 147.893 41.319Z" fill="white"/>
</svg>
