
<svg width="162" height="162" viewBox="0 0 162 162" fill="none" xmlns="http://www.w3.org/2000/svg">
<path d="M81 162C125.735 162 162 125.735 162 81C162 36.2649 125.735 0 81 0C36.2649 0 0 36.2649 0 81C0 125.735 36.2649 162 81 162Z" fill="#3366FF"/>
<path d="M81.0001 153.809C121.211 153.809 153.809 121.211 153.809 81C153.809 40.7887 121.211 8.19104 81.0001 8.19104C40.7889 8.19104 8.19116 40.7887 8.19116 81C8.19116 121.211 40.7889 153.809 81.0001 153.809Z" fill="#244171"/>
<path d="M50.7843 102.024C39.5899 109.76 24.4821 116.768 22.2068 128.508C35.4944 146.619 56.7911 155.902 81 155.902C105.118 155.902 126.506 146.528 139.793 128.508C137.518 116.768 122.501 109.76 111.216 102.024H50.7843Z" fill="#3366FF"/>
<path opacity="0.3" d="M138.701 125.323C125.414 142.615 104.481 153.809 81.0002 153.809C57.4283 153.809 36.5867 142.615 23.2991 125.323C36.5867 137.609 57.5193 145.618 81.0002 145.618C104.572 145.527 125.414 137.609 138.701 125.323Z" fill="#326C92"/>
<path d="M23.299 125.05C23.299 125.141 23.208 125.141 23.208 125.232C23.299 125.232 23.299 125.141 23.299 125.05Z" fill="#326C92"/>
<path d="M138.792 125.323C138.792 125.232 138.792 125.232 138.792 125.323C138.792 125.232 138.701 125.232 138.701 125.141C138.701 125.141 138.701 125.232 138.792 125.323Z" fill="#326C92"/>
<path d="M118.679 78.5427C118.497 78.9978 118.315 79.4528 118.133 79.9079C113.946 89.009 102.388 94.7427 79.7258 94.7427C42.2292 94.7427 35.1303 77.8146 40.5 63.3438C45.5056 50.0562 45.3236 46.5068 47.5989 32.673C47.5989 32.4 47.6899 32.127 47.6899 31.8539C47.8719 30.8528 48.0539 29.8517 48.236 28.7596C51.2393 11.5584 58.3382 11.2854 58.3382 11.2854C58.3382 11.2854 62.8888 0.182038 90.8292 2.63934C118.77 5.09664 110.761 37.6787 117.587 58.2472C120.226 65.8922 120.863 72.809 118.679 78.5427Z" fill="#122854"/>
<path d="M118.679 78.5427C119.771 72.354 118.587 66.4383 116.403 61.3416C113.309 54.0607 113.582 51.8765 111.216 33.4012C108.849 14.9259 106.028 6.00679 84.7313 5.2787C63.5257 4.55062 60.6133 14.3798 60.6133 14.3798C55.1527 14.3798 50.7841 23.2079 47.7808 31.854C47.9628 30.8529 48.1448 29.8517 48.3268 28.7596C51.3302 11.5585 58.065 10.7394 58.065 10.7394C58.065 10.7394 62.9796 -0.181969 90.9201 2.27533C118.861 4.73264 110.852 37.6787 117.677 58.2472C120.226 65.8922 120.863 72.809 118.679 78.5427Z" fill="#3366FF"/>
<path d="M107.302 82.6383L103.935 101.842L80.727 89.5552L58.0652 101.842L54.6978 82.6383L74.6292 72.8091H87.3708L107.302 82.6383Z" fill="#0C1A3C"/>
<path d="M96.3809 95.1067L81.637 112.399L65.073 94.3787L66.0741 69.4416L66.3472 62.4337L93.7415 64.0719L95.3797 83.1843L96.3809 95.1067Z" fill="#FF8B61"/>
<path d="M95.3798 83.1843C78.9068 91.1023 69.9877 78.1787 66.0742 69.4416L66.3473 62.4337L93.7416 64.0719C95.2888 69.9877 95.9259 76.3584 95.3798 83.1843Z" fill="#0C1A3C"/>
<path d="M100.203 36.0404V58.6112C100.203 62.5247 98.6561 66.2562 95.9257 68.9865L92.0123 72.9C90.6471 74.2652 89.0089 75.3573 87.2797 76.0854C85.5505 76.8135 83.6392 77.1775 81.637 77.1775C80.1808 77.1775 78.6336 76.9045 77.2684 76.5404C75.0842 75.8124 72.9909 74.6292 71.2617 72.9L67.1662 68.8045C64.4359 66.0742 62.8887 62.3427 62.8887 58.4292V36.0404C62.8887 30.3977 65.619 25.4831 69.8965 22.3888C72.6269 20.3865 76.0853 19.2034 79.7257 19.2034H83.3662C88.0078 19.2034 92.1943 21.1146 95.1977 24.118C98.383 27.2124 100.203 31.3989 100.203 36.0404Z" fill="#FF8B61"/>
<path d="M70.1696 62.6158C69.7146 54.8798 69.8056 35.9495 69.9876 22.3888C65.8011 25.4832 62.9798 30.3978 62.9798 36.0405V42.4113L61.0685 40.5C60.3404 39.7719 59.2483 39.3169 58.2472 39.3169C56.0629 39.3169 54.2427 41.1371 54.2427 43.3214V49.0551C54.2427 51.7854 55.3348 54.3337 57.246 56.336C58.7932 57.8832 60.8865 58.8843 63.0708 59.2483C63.2528 62.8888 64.709 66.3472 67.3483 68.8955L71.4438 72.991C73.173 74.7202 75.1753 75.9034 77.4505 76.6315C73.5371 72.2629 70.3517 67.3483 70.1696 62.6158Z" fill="#F9591A"/>
<path d="M100.84 41.5922H100.476C80.2718 41.4102 71.1707 24.2091 71.1707 24.2091C71.1707 41.2282 65.164 43.5945 65.164 43.5945V50.5113H62.5246C60.2494 39.499 59.1572 26.5754 66.2561 19.2035C69.8966 15.472 75.5392 13.1057 84.2763 13.1057C110.124 13.1967 100.84 41.5922 100.84 41.5922Z" fill="#122854"/>
<path d="M101.295 38.6798C101.204 38.9528 100.749 38.8618 100.84 38.5888C101.659 27.7585 98.7471 16.6551 85.0954 15.654C75.9033 15.0169 69.7145 17.2922 66.2561 19.2944C69.8966 15.5629 75.5392 13.1967 84.2763 13.1967C104.936 13.1967 102.934 31.3989 101.295 38.6798Z" fill="#3366FF"/>
<path d="M115.038 145.345L54.6977 82.6383L50.7842 102.024L88.5539 153.445C98.11 152.444 107.029 149.623 115.038 145.345Z" fill="#C11E35"/>
<path opacity="0.3" d="M73.355 132.603L88.6449 153.354C90.9202 153.081 93.2864 152.717 95.4707 152.262L101.933 131.602L88.1898 117.405L73.355 132.603Z" fill="#326C92"/>
<path opacity="0.3" d="M85.1864 148.712L95.5617 125.049L88.6448 117.951L74.1741 133.787L85.1864 148.712Z" fill="#326C92"/>
<path d="M73.4462 153.354L111.216 101.933L107.302 82.5472L46.9619 145.254C54.9709 149.623 63.89 152.444 73.4462 153.354Z" fill="#EA3C4D"/>
</svg>
