
<svg width="117" height="22" viewBox="0 0 117 22" fill="none" xmlns="http://www.w3.org/2000/svg">
<path d="M0.896 1.456H15.232V4.62H10.024V21H6.104V4.62H0.896V1.456ZM23.0882 8.456C22.1362 8.456 21.3242 8.74533 20.6522 9.324C19.9802 9.90267 19.5695 10.724 19.4202 11.788H26.7842C26.7655 11.284 26.6535 10.8267 26.4482 10.416C26.2615 10.0053 26.0002 9.66 25.6642 9.38C25.3282 9.08133 24.9362 8.85733 24.4882 8.708C24.0589 8.54 23.5922 8.456 23.0882 8.456ZM30.4522 16.128C30.2469 16.8373 29.9295 17.5093 29.5002 18.144C29.0895 18.76 28.5762 19.3013 27.9602 19.768C27.3442 20.2347 26.6349 20.5987 25.8322 20.86C25.0295 21.1213 24.1522 21.252 23.2002 21.252C22.0802 21.252 21.0442 21.0653 20.0922 20.692C19.1402 20.3187 18.3189 19.7867 17.6282 19.096C16.9375 18.3867 16.3962 17.5373 16.0042 16.548C15.6122 15.5587 15.4162 14.4573 15.4162 13.244C15.4162 12.012 15.6029 10.9107 15.9762 9.94C16.3682 8.95067 16.9002 8.11067 17.5722 7.42C18.2629 6.71067 19.0842 6.16933 20.0362 5.796C20.9882 5.42267 22.0429 5.236 23.2002 5.236C24.3202 5.236 25.3469 5.42267 26.2802 5.796C27.2135 6.15067 28.0162 6.664 28.6882 7.336C29.3789 8.008 29.9109 8.82 30.2842 9.772C30.6575 10.7053 30.8442 11.7507 30.8442 12.908C30.8442 13.1693 30.8349 13.4213 30.8162 13.664C30.7975 13.9067 30.7695 14.1587 30.7322 14.42H19.3922C19.4855 15.5773 19.8775 16.464 20.5682 17.08C21.2775 17.696 22.1269 18.004 23.1162 18.004C23.9562 18.004 24.6189 17.8267 25.1042 17.472C25.5895 17.0987 25.9629 16.6507 26.2242 16.128H30.4522ZM33.7054 0.28H37.6254V21H33.7054V0.28ZM48.1624 8.456C47.2104 8.456 46.3984 8.74533 45.7264 9.324C45.0544 9.90267 44.6437 10.724 44.4944 11.788H51.8584C51.8397 11.284 51.7277 10.8267 51.5224 10.416C51.3357 10.0053 51.0744 9.66 50.7384 9.38C50.4024 9.08133 50.0104 8.85733 49.5624 8.708C49.1331 8.54 48.6664 8.456 48.1624 8.456ZM55.5264 16.128C55.3211 16.8373 55.0037 17.5093 54.5744 18.144C54.1637 18.76 53.6504 19.3013 53.0344 19.768C52.4184 20.2347 51.7091 20.5987 50.9064 20.86C50.1037 21.1213 49.2264 21.252 48.2744 21.252C47.1544 21.252 46.1184 21.0653 45.1664 20.692C44.2144 20.3187 43.3931 19.7867 42.7024 19.096C42.0117 18.3867 41.4704 17.5373 41.0784 16.548C40.6864 15.5587 40.4904 14.4573 40.4904 13.244C40.4904 12.012 40.6771 10.9107 41.0504 9.94C41.4424 8.95067 41.9744 8.11067 42.6464 7.42C43.3371 6.71067 44.1584 6.16933 45.1104 5.796C46.0624 5.42267 47.1171 5.236 48.2744 5.236C49.3944 5.236 50.4211 5.42267 51.3544 5.796C52.2877 6.15067 53.0904 6.664 53.7624 7.336C54.4531 8.008 54.9851 8.82 55.3584 9.772C55.7317 10.7053 55.9184 11.7507 55.9184 12.908C55.9184 13.1693 55.9091 13.4213 55.8904 13.664C55.8717 13.9067 55.8437 14.1587 55.8064 14.42H44.4664C44.5597 15.5773 44.9517 16.464 45.6424 17.08C46.3517 17.696 47.2011 18.004 48.1904 18.004C49.0304 18.004 49.6931 17.8267 50.1784 17.472C50.6637 17.0987 51.0371 16.6507 51.2984 16.128H55.5264ZM65.8077 10.332C66.9277 10.332 67.7397 10.08 68.2437 9.576C68.7477 9.072 68.9997 8.38133 68.9997 7.504C68.9997 6.608 68.7477 5.908 68.2437 5.404C67.7397 4.9 66.9277 4.648 65.8077 4.648H62.6997V10.332H65.8077ZM73.0317 7.504C73.0317 8.25067 72.901 8.988 72.6397 9.716C72.3783 10.4253 71.9583 11.06 71.3797 11.62C70.8197 12.18 70.0917 12.6373 69.1957 12.992C68.2997 13.328 67.2263 13.496 65.9757 13.496H62.6997V21H58.7797V1.456H65.9757C67.1517 1.456 68.1783 1.61467 69.0557 1.932C69.933 2.23067 70.661 2.66 71.2397 3.22C71.837 3.76133 72.285 4.40533 72.5837 5.152C72.8823 5.88 73.0317 6.664 73.0317 7.504ZM79.7348 21H75.8148V5.488H79.7348V7.896C80.2201 7.09333 80.8641 6.45867 81.6668 5.992C82.4695 5.50667 83.4121 5.264 84.4948 5.264V9.38H83.4588C82.8801 9.38 82.3575 9.44533 81.8908 9.576C81.4428 9.688 81.0508 9.89333 80.7148 10.192C80.3975 10.4907 80.1548 10.892 79.9868 11.396C79.8188 11.9 79.7348 12.5253 79.7348 13.272V21ZM98.4751 4.62H91.0551V9.52H97.6351V12.628H91.0551V17.808H98.4751V21H87.1351V1.428H98.4751V4.62ZM109.065 10.332C110.185 10.332 110.997 10.08 111.501 9.576C112.005 9.072 112.257 8.38133 112.257 7.504C112.257 6.608 112.005 5.908 111.501 5.404C110.997 4.9 110.185 4.648 109.065 4.648H105.957V10.332H109.065ZM116.289 7.504C116.289 8.25067 116.159 8.988 115.897 9.716C115.636 10.4253 115.216 11.06 114.637 11.62C114.077 12.18 113.349 12.6373 112.453 12.992C111.557 13.328 110.484 13.496 109.233 13.496H105.957V21H102.037V1.456H109.233C110.409 1.456 111.436 1.61467 112.313 1.932C113.191 2.23067 113.919 2.66 114.497 3.22C115.095 3.76133 115.543 4.40533 115.841 5.152C116.14 5.88 116.289 6.664 116.289 7.504Z" fill="white"/>
</svg>
